<svg width="16" height="16" viewBox="0 0 16 16" fill="none" xmlns="http://www.w3.org/2000/svg">
<g clip-path="url(#clip0_504_65)">
<path d="M15.002 0H1.00195C0.448953 0 0.00195312 0.447 0.00195312 1V15C0.00195312 15.553 0.448953 16 1.00195 16H15.002C15.555 16 16.002 15.553 16.002 15V1C16.002 0.447 15.555 0 15.002 0ZM13.002 5C13.002 5.553 12.554 6 12.002 6C11.45 6 11.002 5.553 11.002 5H9.00195V11H10.002C10.554 11 11.002 11.447 11.002 12C11.002 12.553 10.554 13 10.002 13H6.00195C5.44995 13 5.00195 12.553 5.00195 12C5.00195 11.447 5.44995 11 6.00195 11H7.00195V5H5.00195C5.00195 5.553 4.55395 6 4.00195 6C3.44995 6 3.00195 5.553 3.00195 5V4C3.00195 3.447 3.44995 3 4.00195 3H12.002C12.554 3 13.002 3.447 13.002 4V5Z" fill="white"/>
</g>
<defs>
<clipPath id="clip0_504_65">
<rect width="16" height="16" fill="white" transform="translate(0.00195312)"/>
</clipPath>
</defs>
</svg>
