<svg width="23" height="22" viewBox="0 0 23 22" fill="none" xmlns="http://www.w3.org/2000/svg">
<g clip-path="url(#clip0_16_16)">
<path d="M11.002 0C4.9272 0 0.00195312 4.92525 0.00195312 11C0.00195312 17.0748 4.9272 22 11.002 22C17.0767 22 22.002 17.0748 22.002 11C22.002 4.92525 17.0767 0 11.002 0ZM11.002 19.25C6.45208 19.25 2.75195 15.5485 2.75195 11C2.75195 6.4515 6.45208 2.75 11.002 2.75C15.5505 2.75 19.252 6.4515 19.252 11C19.252 15.5485 15.5505 19.25 11.002 19.25Z" fill="white"/>
<path d="M11.6895 5.5H10.3145C9.93495 5.5 9.62695 5.808 9.62695 6.1875V7.5625C9.62695 7.942 9.93495 8.25 10.3145 8.25H11.6895C12.069 8.25 12.377 7.942 12.377 7.5625V6.1875C12.377 5.808 12.069 5.5 11.6895 5.5Z" fill="white"/>
<path d="M11.6895 9.625H10.3145C9.93495 9.625 9.62695 9.933 9.62695 10.3125V15.8125C9.62695 16.192 9.93495 16.5 10.3145 16.5H11.6895C12.069 16.5 12.377 16.192 12.377 15.8125V10.3125C12.377 9.933 12.069 9.625 11.6895 9.625Z" fill="white"/>
</g>
<defs>
<clipPath id="clip0_16_16">
<rect width="22" height="22" fill="white" transform="translate(0.00195312)"/>
</clipPath>
</defs>
</svg>
