<svg width="17" height="16" viewBox="0 0 17 16" fill="none" xmlns="http://www.w3.org/2000/svg">
<g clip-path="url(#clip0_201_69)">
<path d="M15.002 3H12.002V1C12.002 0.447 11.555 0 11.002 0H5.00195C4.44895 0 4.00195 0.447 4.00195 1V3H1.00195C0.448953 3 0.00195312 3.447 0.00195312 4V15C0.00195312 15.553 0.448953 16 1.00195 16H15.002C15.555 16 16.002 15.553 16.002 15V4C16.002 3.447 15.555 3 15.002 3ZM6.00195 2H10.002V3H6.00195V2ZM14.002 14H2.00195V10H4.00195V11C4.00195 11.553 4.44895 12 5.00195 12C5.55495 12 6.00195 11.553 6.00195 11V10H10.002V11C10.002 11.553 10.449 12 11.002 12C11.555 12 12.002 11.553 12.002 11V10H14.002V14ZM2.00195 8V5H14.002V8H2.00195Z" fill="white"/>
</g>
<defs>
<clipPath id="clip0_201_69">
<rect width="16" height="16" fill="white" transform="translate(0.00195312)"/>
</clipPath>
</defs>
</svg>
