<svg width="22" height="22" viewBox="0 0 22 22" fill="none" xmlns="http://www.w3.org/2000/svg">
<g clip-path="url(#clip0_23_23)">
<path d="M20.625 4.1251H14.3192L16.0971 2.34722C16.6347 1.8096 16.6347 0.9406 16.0971 0.402975C15.5595 -0.13465 14.6905 -0.13465 14.1529 0.402975L11 3.55585L7.84712 0.402975C7.3095 -0.13465 6.4405 -0.13465 5.90288 0.402975C5.36525 0.9406 5.36525 1.8096 5.90288 2.34722L7.68075 4.1251H1.375C0.614625 4.1251 0 4.73972 0 5.5001V20.6251C0 21.3855 0.614625 22.0001 1.375 22.0001H20.625C21.3854 22.0001 22 21.3855 22 20.6251V5.5001C22 4.73972 21.3854 4.1251 20.625 4.1251ZM16.5 18.5626C16.5 18.9421 16.192 19.2501 15.8125 19.2501H3.4375C3.058 19.2501 2.75 18.9421 2.75 18.5626V7.5626C2.75 7.1831 3.058 6.8751 3.4375 6.8751H15.8125C16.192 6.8751 16.5 7.1831 16.5 7.5626V18.5626ZM20.625 13.0626C20.625 13.4421 20.317 13.7501 19.9375 13.7501H18.5625C18.183 13.7501 17.875 13.4421 17.875 13.0626V11.6876C17.875 11.3081 18.183 11.0001 18.5625 11.0001H19.9375C20.317 11.0001 20.625 11.3081 20.625 11.6876V13.0626ZM20.625 8.9376C20.625 9.3171 20.317 9.6251 19.9375 9.6251H18.5625C18.183 9.6251 17.875 9.3171 17.875 8.9376V7.5626C17.875 7.1831 18.183 6.8751 18.5625 6.8751H19.9375C20.317 6.8751 20.625 7.1831 20.625 7.5626V8.9376Z" fill="white"/>
</g>
<defs>
<clipPath id="clip0_23_23">
<rect width="22" height="22" fill="white"/>
</clipPath>
</defs>
</svg>
