<svg width="17" height="22" viewBox="0 0 17 22" fill="none" xmlns="http://www.w3.org/2000/svg">
<g clip-path="url(#clip0_201_63)">
<path d="M14.6686 8.66669V7.33335C14.6686 3.65069 11.6846 0.666687 8.00195 0.666687C4.31929 0.666687 1.33529 3.65069 1.33529 7.33335V8.66669C0.597953 8.66669 0.00195312 9.26269 0.00195312 10V20.6667C0.00195312 21.404 0.597953 22 1.33529 22H14.6686C15.406 22 16.002 21.404 16.002 20.6667V10C16.002 9.26269 15.406 8.66669 14.6686 8.66669ZM4.00195 7.33335C4.00195 5.12802 5.79662 3.33335 8.00195 3.33335C10.2073 3.33335 12.002 5.12802 12.002 7.33335V8.66669H10.6686H5.33529H4.00195V7.33335ZM13.3353 19.3334H2.66862V11.3334H13.3353V19.3334Z" fill="white"/>
<path d="M7.33525 18H8.66858C9.03658 18 9.33525 17.7014 9.33525 17.3334V14C9.33525 13.2627 8.73925 12.6667 8.00191 12.6667C7.26458 12.6667 6.66858 13.2627 6.66858 14V17.3334C6.66858 17.7014 6.96725 18 7.33525 18Z" fill="white"/>
</g>
<defs>
<clipPath id="clip0_201_63">
<rect width="16" height="21.3333" fill="white" transform="translate(0.00195312 0.666687)"/>
</clipPath>
</defs>
</svg>
