<svg width="16" height="14" viewBox="0 0 16 14" fill="none" xmlns="http://www.w3.org/2000/svg">
<g clip-path="url(#clip0_504_69)">
<path fill-rule="evenodd" clip-rule="evenodd" d="M16 1C16 0.447 15.553 0 15 0H1C0.447 0 0 0.447 0 1V13C0 13.553 0.447 14 1 14H15C15.553 14 16 13.553 16 13V1ZM4.008 12H2.008V10H4.008V12ZM4.008 8H2.008V6H4.008V8ZM4.008 4H2.008V2H4.008V4ZM10.296 7.274L6.584 9.934C6.385 10.085 6 9.969 6 9.673V4.326C6 4.031 6.416 3.915 6.615 4.066L10.231 6.724C10.431 6.876 10.495 7.123 10.296 7.274ZM14.008 12H12.008V10H14.008V12ZM14.008 8H12.008V6H14.008V8ZM14.008 4H12.008V2H14.008V4Z" fill="white"/>
</g>
<defs>
<clipPath id="clip0_504_69">
<rect width="16" height="14" fill="white"/>
</clipPath>
</defs>
</svg>
