<svg width="16" height="21" viewBox="0 0 16 21" fill="none" xmlns="http://www.w3.org/2000/svg">
<g clip-path="url(#clip0_43_60)">
<path fill-rule="evenodd" clip-rule="evenodd" d="M13.502 0H1.50195C0.672453 0 0.00195312 0.6705 0.00195312 1.5V19.5C0.00195312 20.3295 0.672453 21 1.50195 21H13.502C14.3315 21 15.002 20.3295 15.002 19.5V1.5C15.002 0.6705 14.3315 0 13.502 0ZM8.25195 19.5H6.75195C6.33795 19.5 6.00195 19.164 6.00195 18.75V17.25C6.00195 16.836 6.33795 16.5 6.75195 16.5H8.25195C8.66595 16.5 9.00195 16.836 9.00195 17.25V18.75C9.00195 19.164 8.66595 19.5 8.25195 19.5ZM12.002 15H3.00195V3H12.002V15Z" fill="white"/>
</g>
<defs>
<clipPath id="clip0_43_60">
<rect width="15" height="21" fill="white" transform="translate(0.00195312)"/>
</clipPath>
</defs>
</svg>
